HIERARCHY
ROOT Hips
{
	OFFSET 0.00 0.00 0.00
	CHANNELS 6 Xposition Yposition Zposition Yrotation Xrotation Zrotation
	JOINT LHipJoint
	{
		OFFSET	0.0000	0.0000	0.0000
		CHANNELS 3 Yrotation Xrotation Zrotation
		JOINT LeftUpLeg
		{
			OFFSET	1.0138	-0.0809	-0.0827
			CHANNELS 3 Yrotation Xrotation Zrotation
			JOINT LeftLeg
			{
				OFFSET	0.4110	-3.9095	0.3245
				CHANNELS 3 Yrotation Xrotation Zrotation
				JOINT LeftFoot
				{
					OFFSET	0.3810	-4.0555	-0.1470
					CHANNELS 3 Yrotation Xrotation Zrotation
					JOINT LeftToeBase
					{
						OFFSET	0.1396	-0.4462	1.3079
						CHANNELS 3 Yrotation Xrotation Zrotation
						End Site
						{
							OFFSET 0.0161 -0.0248 0.1809
						}
					}
				}
			}
		}
	}
	JOINT LowerBack
	{
		OFFSET	0.0000	0.7977	-0.3873
		CHANNELS 3 Yrotation Xrotation Zrotation
		JOINT Spine
		{
			OFFSET	0.0000	1.4131	0.1715
			CHANNELS 3 Yrotation Xrotation Zrotation
			JOINT Spine1
			{
				OFFSET	0.0000	1.4392	-0.1032
				CHANNELS 3 Yrotation Xrotation Zrotation
				JOINT LeftShoulder
				{
					OFFSET	0.2274	1.0382	0.4032
					CHANNELS 3 Yrotation Xrotation Zrotation
					JOINT LeftArm
					{
						OFFSET	1.4730	-0.2267	-0.0231
						CHANNELS 3 Yrotation Xrotation Zrotation
						JOINT LeftForeArm
						{
							OFFSET	1.6131	-1.8059	0.0081
							CHANNELS 3 Yrotation Xrotation Zrotation
							JOINT LeftHand
							{
								OFFSET	1.2197	-1.2423	1.6317
								CHANNELS 3 Yrotation Xrotation Zrotation
								JOINT LThumb
								{
									OFFSET	0.0109	-0.0753	0.4387
									CHANNELS 3 Yrotation Xrotation Zrotation
									End Site
									{
										OFFSET -0.2090 -0.0868 0.2097
									}
								}
								JOINT LeftFingerBase
								{
									OFFSET	0.1071	-0.1567	0.2607
									CHANNELS 3 Yrotation Xrotation Zrotation
									JOINT LeftHandFinger1
									{
										OFFSET	0.1706	-0.2492	0.6830
										CHANNELS 3 Yrotation Xrotation Zrotation
										End Site
										{
											OFFSET 0.0335 -0.1507 0.2071
										}
									}
								}
							}
						}
					}
				}
				JOINT Neck
				{
					OFFSET	0.0000	1.7498	0.2381
					CHANNELS 3 Yrotation Xrotation Zrotation
					JOINT Neck1
					{
						OFFSET	0.0000	0.5043	0.1959
						CHANNELS 3 Yrotation Xrotation Zrotation
						JOINT Head
						{
							OFFSET	0.0000	0.5044	0.1959
							CHANNELS 3 Yrotation Xrotation Zrotation
							End Site
							{
								OFFSET 0.0000 1.4798 -0.0693
							}
						}
					}
				}
				JOINT RightShoulder
				{
					OFFSET	-0.2274	1.0382	0.4032
					CHANNELS 3 Yrotation Xrotation Zrotation
					JOINT RightArm
					{
						OFFSET	-1.4730	-0.2267	-0.0231
						CHANNELS 3 Yrotation Xrotation Zrotation
						JOINT RightForeArm
						{
							OFFSET	-1.6131	-1.8059	0.0081
							CHANNELS 3 Yrotation Xrotation Zrotation
							JOINT RightHand
							{
								OFFSET	-1.2197	-1.2423	1.6317
								CHANNELS 3 Yrotation Xrotation Zrotation
								JOINT RThumb
								{
									OFFSET	-0.0109	-0.0753	0.4387
									CHANNELS 3 Yrotation Xrotation Zrotation
									End Site
									{
										OFFSET 0.2090 -0.0868 0.2097
									}
								}
								JOINT RightFingerBase
								{
									OFFSET	-0.1071	-0.1567	0.2607
									CHANNELS 3 Yrotation Xrotation Zrotation
									JOINT RightHandFinger1
									{
										OFFSET	-0.1706	-0.2492	0.6830
										CHANNELS 3 Yrotation Xrotation Zrotation
										End Site
										{
											OFFSET -0.0335 -0.1507 0.2071
										}
									}
								}
							}
						}
					}
				}
			}
		}
	}
	JOINT RHipJoint
	{
		OFFSET	0.0000	0.0000	0.0000
		CHANNELS 3 Yrotation Xrotation Zrotation
		JOINT RightUpLeg
		{
			OFFSET	-1.0138	-0.0809	-0.0827
			CHANNELS 3 Yrotation Xrotation Zrotation
			JOINT RightLeg
			{
				OFFSET	-0.4110	-3.9095	0.3245
				CHANNELS 3 Yrotation Xrotation Zrotation
				JOINT RightFoot
				{
					OFFSET	-0.3810	-4.0555	-0.1470
					CHANNELS 3 Yrotation Xrotation Zrotation
					JOINT RightToeBase
					{
						OFFSET	-0.1396	-0.4462	1.3079
						CHANNELS 3 Yrotation Xrotation Zrotation
						End Site
						{
							OFFSET -0.0161 -0.0248 0.1809
						}
					}
				}
			}
		}
	}
}
MOTION
Frames: 5
Frame Time: 0.0333333
-0.0339 7.1964 -0.2605 -18.8483 19.8807 -9.3829 0.0000 -0.0000 0.0000 -3.5060 -69.6245 17.0052 176.2124 58.0412 169.0086 -1.8455 -8.2933 18.3598 0.0000 -6.0087 0.0000 0.0000 -0.0000 0.0000 5.8738 5.7455 1.5180 11.9951 11.2649 3.8850 3.0891 0.7413 -2.9123 12.9851 43.2943 -17.4604 -16.1536 -16.1783 0.4975 2.0903 -9.6418 26.8873 33.9256 -17.1099 7.5080 -21.1535 14.6473 -19.1361 -53.3361 20.9817 -43.8382 -1.7300 -7.3946 1.5847 -1.8203 -7.3767 1.3993 6.7841 -16.8960 -6.3926 10.4334 0.0277 9.3796 15.8302 -27.4230 -4.9278 47.8238 -38.7779 -16.2044 8.5214 8.7343 -34.6615 -25.9991 -2.1502 -0.5653 46.7014 26.5703 48.9329 37.7597 16.2655 29.1632 0.0000 -0.0000 0.0000 0.9402 -25.6256 8.6927 4.1533 54.1715 1.7783 3.1038 -40.4816 -3.3195 -0.0000 -10.9732 0.0000 
0.0402 7.2626 -0.2805 -15.7803 20.5166 -4.6347 0.0000 -0.0000 0.0000 -5.3286 -82.4746 15.7921 178.7833 66.7613 171.6410 -1.5151 -8.5538 18.7387 -0.0000 0.8970 -0.0000 0.0000 -0.0000 0.0000 7.8583 5.2373 0.2812 15.2493 10.5962 0.2520 3.4913 0.6316 -0.9464 22.3816 51.5711 -5.7679 -21.2413 -20.9888 2.2142 2.5155 -9.8154 26.1994 33.9256 -17.1099 7.5080 -20.8707 14.4596 -18.3544 -54.5642 21.0910 -44.9617 -2.4248 -7.5105 1.0417 -2.5496 -7.4833 0.8506 -1.1980 -16.0592 -3.5284 8.6259 0.3203 6.1643 17.5703 -33.2449 -11.2060 55.8972 -41.9701 -21.5357 -0.0805 -1.1319 -59.1282 -25.9991 -2.1502 -0.5653 48.6300 25.7129 50.3764 37.7169 16.2510 29.1250 0.0000 -0.0000 0.0000 -2.8659 -10.5706 2.1283 6.4532 42.3544 -0.2323 4.0734 -34.0422 -1.0040 -0.0000 -24.1922 0.0000 
0.0907 7.3810 -0.2433 -9.3571 22.6987 1.3362 0.0000 -0.0000 0.0000 61.1068 -87.0155 -57.3865 162.1601 81.7214 156.4369 -0.7868 -7.3192 13.2487 0.0000 0.3444 -0.0000 0.0000 -0.0000 0.0000 8.7400 4.3978 -1.4711 16.1127 9.3123 -3.9274 0.4778 0.5769 0.0806 35.3358 55.4692 10.1025 -26.4640 -25.4636 4.3662 2.3144 -8.1329 23.4513 33.9256 -17.1099 7.5080 -18.4240 13.5222 -14.9864 -55.5464 21.1621 -45.8606 -2.9255 -7.5407 0.3759 -3.0897 -7.4954 0.1859 -9.0067 -12.9772 -0.5095 5.6135 0.5225 4.0933 6.9872 -35.7409 -11.0147 70.2635 -45.6920 -31.6675 1.4882 0.1812 -46.1181 -25.9991 -2.1502 -0.5653 48.0275 26.1871 49.4702 36.6310 15.8731 28.1552 0.0000 -0.0000 0.0000 -10.0393 3.1566 -4.4166 7.8404 25.0711 -1.9461 0.2783 -12.8566 4.8267 -17.1223 -60.7764 39.1664 
0.1036 7.5018 -0.2056 -2.9944 24.1995 4.5921 0.0000 -0.0000 0.0000 61.2975 -86.2466 -64.1779 29.2890 77.2185 24.4919 -0.0861 -4.9142 5.8841 -0.0000 0.4687 -0.0000 0.0000 -0.0000 0.0000 8.6956 3.6311 -2.4964 15.4755 7.8973 -6.0419 -1.2778 0.5765 0.2633 40.1687 56.9872 19.3678 -29.4022 -27.7647 5.7306 2.2858 -8.7310 23.1620 33.9256 -17.1099 7.5080 -15.9636 12.5561 -11.4951 -54.8085 21.1100 -45.1853 -3.3587 -7.3623 0.2452 -3.5199 -7.3110 0.0611 -14.2778 -11.6820 1.8885 3.3861 0.6012 5.4196 0.4761 -35.5961 -12.4819 79.0808 -46.9179 -38.1338 5.3530 3.3021 -32.4691 -25.9991 -2.1502 -0.5653 46.5856 26.8156 47.6139 35.0352 15.2798 26.7331 0.0000 -0.0000 0.0000 -14.0079 16.3682 -5.8903 4.2440 8.9549 -4.0432 -0.4782 7.1550 8.3840 0.0000 -11.4709 0.0000 
0.1156 7.5625 -0.2438 1.4997 24.4893 4.2234 0.0000 -0.0000 0.0000 13.9543 -83.4970 -20.5290 13.6588 58.7104 9.0169 0.4455 -1.6054 -1.2759 -0.0000 0.2307 0.0000 0.0000 -0.0000 0.0000 8.0344 2.9656 -2.4051 13.7849 6.3127 -5.0360 -1.3490 0.5884 -0.4727 34.7019 56.5463 16.2793 -29.4548 -27.8045 5.7559 2.6996 -9.6567 24.0404 33.9256 -17.1099 7.5080 -13.2504 11.4817 -7.9459 -56.0426 21.1925 -46.3148 -3.6047 -6.9498 0.5046 -3.7367 -6.9088 0.3324 -16.3433 -11.4088 3.4223 3.1470 0.6131 7.4354 0.7156 -28.6311 -15.0498 79.2180 -46.9312 -38.2353 3.3299 6.7822 -33.9525 -25.9991 -2.1502 -0.5653 46.0089 27.1407 46.4934 35.0528 15.2866 26.7488 0.0000 -0.0000 0.0000 -9.8384 20.9474 -0.6940 2.7062 16.8497 -3.6356 -0.4276 5.8486 10.9106 -0.0000 -2.7374 0.0000 
